<?xml version="1.0" encoding="utf-8" ?>
<svg xmlns="http://www.w3.org/2000/svg" xmlns:xlink="http://www.w3.org/1999/xlink" width="725" height="714">
	<path fill="#192744" d="M0 0L339.327 0L385.38 0L724.38 0C725.285 1.58201 724.994 3.69865 724.995 5.47383L725.001 256.791L725.007 316.713C725.007 321.335 725.621 334.877 724.825 338.126C724.748 338.438 724.686 338.559 724.561 338.876C725.322 340.784 725.468 372.376 724.712 374.53C724.674 374.639 724.616 374.741 724.568 374.846C725.677 377.986 725.01 418.358 725.01 424.177L725.001 559.808C725 573.096 725.546 711.766 724.636 713.55C724.558 713.704 724.466 713.85 724.38 714L374.516 714L350.51 714L341.213 714L0 714L0 373.993L0 339.595L0 0ZM0 373.993L0 714L341.213 714L340.941 713.218C336.15 712.701 331.263 712.618 326.451 712.209Q312.757 711.034 299.188 708.845Q294.424 708.069 289.683 707.164Q284.942 706.259 280.227 705.226Q275.512 704.193 270.827 703.033Q266.141 701.872 261.489 700.586Q256.837 699.299 252.222 697.886Q247.606 696.474 243.031 694.937Q238.455 693.4 233.923 691.739Q229.391 690.079 224.906 688.296Q220.42 686.514 215.985 684.61Q211.549 682.707 207.167 680.684Q202.784 678.661 198.459 676.52Q194.133 674.379 189.866 672.121Q185.6 669.864 181.397 667.491Q177.193 665.119 173.055 662.634Q168.918 660.149 164.849 657.552Q160.78 654.956 156.783 652.25Q153.345 649.924 149.963 647.519Q146.58 645.114 143.254 642.63Q139.928 640.147 136.661 637.588Q133.394 635.028 130.187 632.393Q126.98 629.758 123.835 627.049Q120.69 624.34 117.609 621.559Q114.528 618.777 111.513 615.925Q108.497 613.073 105.549 610.152Q102.601 607.23 99.7211 604.241Q96.8414 601.252 94.032 598.197Q91.2226 595.141 88.485 592.022Q85.7473 588.902 83.0829 585.72Q80.4186 582.537 77.8289 579.293Q75.2392 576.05 72.7256 572.747Q70.212 569.444 67.7758 566.083Q65.3397 562.723 62.9823 559.307Q60.6249 555.891 58.3476 552.421Q56.0703 548.951 53.8742 545.429Q51.6781 541.907 49.5645 538.335Q47.4509 534.763 45.4209 531.142Q43.3909 527.522 41.4456 523.856Q39.5003 520.189 37.6407 516.479Q35.7812 512.768 34.0083 509.015Q32.2355 505.262 30.5504 501.469Q28.8653 497.676 27.2688 493.845Q25.6724 490.013 24.1654 486.146Q22.6584 482.279 21.2417 478.378Q19.825 474.476 18.4993 470.543Q17.1737 466.61 15.9398 462.647Q14.706 458.684 13.5645 454.694Q12.4231 450.703 11.3748 446.687Q10.3264 442.671 9.37171 438.632Q4.55412 417.988 2.15167 396.927C1.34041 389.547 1.48569 381.6 0.0757375 374.359C0.0519558 374.237 0.0252458 374.115 0 373.993ZM724.568 374.846C725.286 380.049 722.712 398.947 721.868 405.167Q721.098 410.809 720.148 416.423Q719.199 422.037 718.07 427.618Q716.94 433.199 715.633 438.741Q714.326 444.283 712.842 449.78Q711.358 455.277 709.698 460.724Q708.039 466.171 706.206 471.562Q704.373 476.953 702.369 482.283Q700.364 487.612 698.19 492.875Q696.016 498.137 693.674 503.328Q691.333 508.518 688.826 513.631Q686.32 518.743 683.651 523.773Q680.982 528.803 678.153 533.745Q675.324 538.686 672.339 543.535Q669.354 548.384 666.214 553.134Q663.075 557.885 659.786 562.532Q656.496 567.18 653.059 571.72Q650.412 575.227 647.68 578.668Q644.948 582.109 642.132 585.481Q639.315 588.854 636.417 592.156Q633.519 595.458 630.54 598.688Q627.561 601.917 624.503 605.072Q621.445 608.228 618.311 611.307Q615.176 614.386 611.967 617.386Q608.758 620.387 605.475 623.308Q602.193 626.229 598.84 629.068Q595.486 631.907 592.064 634.662Q588.642 637.418 585.152 640.088Q581.663 642.758 578.109 645.342Q574.555 647.925 570.939 650.421Q567.323 652.916 563.646 655.321Q559.969 657.727 556.234 660.041Q552.499 662.354 548.708 664.576Q544.917 666.797 541.072 668.924Q537.228 671.051 533.332 673.083Q529.436 675.115 525.492 677.05Q521.547 678.985 517.556 680.823Q513.565 682.66 509.529 684.399Q505.494 686.137 501.417 687.776Q497.341 689.414 493.225 690.952Q489.109 692.489 484.956 693.925Q480.803 695.361 476.617 696.694Q472.43 698.026 468.212 699.256Q463.993 700.485 459.746 701.61Q455.499 702.735 451.225 703.755Q446.951 704.775 442.654 705.69Q438.356 706.604 434.037 707.412Q429.718 708.22 425.381 708.922Q421.043 709.624 416.69 710.218Q396.269 713.095 375.648 713.373L374.516 714L724.38 714C724.466 713.85 724.558 713.704 724.636 713.55C725.546 711.766 725 573.096 725.001 559.808L725.01 424.177C725.01 418.358 725.677 377.986 724.568 374.846ZM385.38 0C385.491 0.0271852 385.601 0.0560666 385.712 0.0815555C389.109 0.86011 392.863 0.843442 396.346 1.08503Q402.879 1.52861 409.386 2.25718Q430.975 4.76551 452.11 9.83597Q456.252 10.8399 460.369 11.9423Q464.486 13.0447 468.575 14.2449Q472.665 15.4451 476.725 16.7425Q480.784 18.0398 484.812 19.4336Q488.84 20.8273 492.833 22.3167Q496.826 23.806 500.783 25.3902Q504.74 26.9743 508.657 28.6523Q512.575 30.3303 516.452 32.1012Q520.328 33.872 524.162 35.7348Q527.995 37.5976 531.783 39.5513Q535.571 41.5049 539.311 43.5483Q543.051 45.5917 546.741 47.7236Q550.432 49.8556 554.07 52.0749Q557.709 54.2942 561.294 56.5996Q564.878 58.905 568.407 61.2952Q571.936 63.6854 575.406 66.1591Q578.877 68.6327 582.287 71.1883Q585.698 73.744 589.047 76.3802Q592.396 79.0165 595.681 81.7318Q598.966 84.4471 602.185 87.2399Q605.404 90.0327 608.556 92.9015Q611.708 95.7703 614.791 98.7134Q617.873 101.656 620.885 104.672Q623.896 107.688 626.835 110.775Q629.774 113.861 632.638 117.017Q635.503 120.173 638.291 123.396Q641.079 126.619 643.79 129.908Q646.501 133.197 649.132 136.549Q651.764 139.902 654.315 143.316Q656.866 146.73 659.334 150.204Q661.803 153.678 664.188 157.21Q666.574 160.742 668.874 164.33Q671.583 168.555 674.172 172.855Q676.761 177.155 679.228 181.526Q681.694 185.898 684.036 190.337Q686.378 194.776 688.593 199.28Q690.809 203.784 692.896 208.348Q694.983 212.913 696.941 217.535Q698.898 222.156 700.724 226.831Q702.551 231.507 704.244 236.231Q705.937 240.956 707.496 245.727Q709.055 250.498 710.479 255.311Q711.902 260.124 713.189 264.975Q714.476 269.827 715.625 274.713Q716.775 279.598 717.786 284.515Q718.796 289.431 719.668 294.374Q720.539 299.317 721.271 304.282Q722.002 309.248 722.593 314.232C723.112 318.528 725.278 335.534 724.561 338.876C724.686 338.559 724.748 338.438 724.825 338.126C725.621 334.877 725.007 321.335 725.007 316.713L725.001 256.791L724.995 5.47383C724.994 3.69865 725.285 1.58201 724.38 0L385.38 0ZM0 0L0 339.595C1.33931 334.414 1.09731 327.133 1.59166 321.631Q2.85541 308.805 5.0419 296.103Q5.80737 291.623 6.68751 287.165Q7.56765 282.706 8.56187 278.272Q9.55609 273.837 10.6637 269.43Q11.7714 265.022 12.9917 260.645Q14.2121 256.267 15.5443 251.922Q16.8766 247.577 18.3199 243.268Q19.7631 238.958 21.3165 234.687Q22.8698 230.417 24.5322 226.187Q26.1946 221.957 27.965 217.772Q29.7353 213.586 31.6125 209.447Q33.4896 205.308 35.4723 201.219Q37.455 197.13 39.5419 193.093Q41.6289 189.056 43.8187 185.073Q46.0085 181.091 48.2998 177.166Q50.591 173.242 52.9822 169.377Q55.3734 165.512 57.8629 161.71Q60.174 158.167 62.5684 154.68Q64.9628 151.193 67.4391 147.763Q69.9155 144.334 72.4725 140.964Q75.0295 137.595 77.6657 134.286Q80.3018 130.978 83.0157 127.734Q85.7295 124.489 88.5195 121.309Q91.3095 118.13 94.1741 115.017Q97.0387 111.905 99.9763 108.861Q102.914 105.817 105.923 102.844Q108.932 99.8709 112.01 96.9699Q115.089 94.0688 118.235 91.2416Q121.382 88.4143 124.594 85.6624Q127.807 82.9105 131.084 80.2356Q134.361 77.5606 137.7 74.9641Q141.039 72.3675 144.439 69.8509Q147.839 67.3342 151.298 64.8989Q154.757 62.4636 158.272 60.1109Q161.788 57.7582 165.358 55.4895Q168.928 53.2209 172.551 51.0375Q176.174 48.854 179.848 46.7571Q183.522 44.6602 187.245 42.651Q190.967 40.6417 194.736 38.7213Q198.505 36.8009 202.319 34.9703Q206.132 33.1397 209.988 31.4001Q213.844 29.6605 217.74 28.0127Q221.636 26.365 225.57 24.81Q229.504 23.2551 233.473 21.7938Q237.443 20.3326 241.446 18.9658Q245.45 17.5991 249.484 16.3276Q253.519 15.0562 257.582 13.8807Q261.646 12.7052 265.736 11.6264Q269.826 10.5476 273.941 9.56605Q295.231 4.53599 316.969 2.08415C323.817 1.33208 332.487 1.50043 338.985 0.0798048C339.1 0.0548417 339.213 0.0266016 339.327 0L0 0ZM350.397 713.399L350.51 714L374.516 714L375.648 713.373C367.247 713.589 358.803 713.416 350.397 713.399ZM340.941 713.218L341.213 714L350.51 714L350.397 713.399L340.941 713.218Z"/>
	<path fill="#FEFEFE" d="M230.46 187.069C231.278 187.645 231.331 187.735 231.702 188.667C231.558 189.694 231.288 190.043 230.657 190.818C229.924 190.305 229.623 190.03 229.271 189.202C229.502 188.114 229.754 187.891 230.46 187.069Z"/>
	<path fill="#192744" fill-opacity="0.015686275" d="M340.941 713.218L350.397 713.399L350.51 714L341.213 714L340.941 713.218Z"/>
	<path fill="#FEFEFE" d="M251.859 243.98C252.663 244.118 253.094 244.366 253.765 244.823C254.241 245.816 254.094 246.424 253.903 247.453C253.06 247.436 252.663 247.413 251.962 246.929C251.454 245.977 251.725 245.002 251.859 243.98Z"/>
	<path fill="#FEFEFE" d="M285.717 461.545C286.476 461.696 287.224 461.889 287.976 462.076C288.723 462.951 288.628 463.149 288.692 464.259C287.559 464.379 286.939 464.578 285.882 464.116C285.392 463.208 285.573 462.514 285.717 461.545Z"/>
	<path fill="#FEFEFE" d="M330.763 201.593C331.83 201.748 332.437 201.851 333.257 202.594C333.509 203.555 333.239 204.116 332.897 204.998C331.889 204.836 331.292 204.762 330.523 204.015C330.229 203.01 330.444 202.547 330.763 201.593Z"/>
	<path fill="#946D2C" d="M340.974 385.436L344.507 386.352C343.427 387.082 341.473 388.058 341.181 389.394C341.104 389.744 341.065 390.101 341.019 390.456C340.859 389.555 340.711 388.541 340.38 387.689C339.91 386.483 339.284 386.357 338.188 385.966C339.052 385.656 340.066 385.584 340.974 385.436Z"/>
	<path fill="#FBBA27" d="M189.176 305.329C190.428 305.475 191.152 305.718 191.975 306.69C192.175 307.777 191.836 308.411 191.409 309.375C191.121 309.406 190.72 309.464 190.438 309.418C189.516 309.268 189.322 308.954 188.824 308.255C188.676 307.104 188.811 306.425 189.176 305.329Z"/>
	<path fill="#FEFEFE" d="M321.636 159.796C322.849 159.953 323.641 160.011 324.559 160.916C324.803 162.108 324.66 162.394 324.294 163.517C323.982 163.556 323.496 163.625 323.193 163.618C322.281 163.598 322.097 163.432 321.458 162.855C321.12 161.755 321.394 160.88 321.636 159.796Z"/>
	<path fill="#FEFEFE" d="M553.626 442.457C553.917 442.528 554.292 442.608 554.557 442.736C555.406 443.146 555.551 443.412 555.899 444.223C555.721 445.354 555.357 445.775 554.605 446.567C553.266 445.949 552.339 445.585 551.803 444.139C552.346 443.126 552.661 443.027 553.626 442.457Z"/>
	<path fill="#FEFEFE" d="M148.669 329.825L149.873 330.367C150.369 331.075 150.757 331.46 150.636 332.388C150.501 333.42 149.744 333.88 148.978 334.422C148.819 334.302 148.658 334.184 148.5 334.062C147.53 333.31 147.07 332.575 146.942 331.358C147.471 330.428 147.761 330.339 148.669 329.825Z"/>
	<path fill="#CDD2DA" d="M165.345 259.16L165.872 259.761L166.559 259.342C166.952 260.163 166.719 260.461 166.433 261.307C166.054 262.426 165.257 263.646 164.136 264.145C163.252 264.538 162.335 264.535 161.471 264.089C160.808 263.746 160.209 263.171 159.647 262.687C161.494 262.457 163.544 262.758 165.093 261.68C165.303 260.83 165.322 260.028 165.345 259.16Z"/>
	<path fill="#192744" fill-opacity="0.06666667" d="M350.397 713.399C358.803 713.416 367.247 713.589 375.648 713.373L374.516 714L350.51 714L350.397 713.399Z"/>
	<path fill="#FBBA27" d="M367.623 182.103C368.638 182.707 369.64 183.419 370.07 184.55C369.929 185.833 369.607 186.072 368.824 187.061C367.977 187.103 367.474 186.901 366.696 186.609C366.34 186.173 366.028 185.977 365.99 185.389C365.896 183.942 366.727 183.097 367.623 182.103Z"/>
	<path fill="#FEFEFE" d="M308.719 427.145C309.739 427.325 310.78 427.51 311.414 428.433C311.922 429.173 312.019 429.928 311.807 430.788C311.548 431.84 310.715 432.361 309.883 432.925C309.134 432.774 308.123 432.472 307.556 431.909C306.897 431.253 306.65 430.736 306.742 429.794C306.85 428.701 307.969 427.846 308.719 427.145Z"/>
	<path fill="#FBBA27" d="M302.693 487.689C303.381 487.842 304.35 488.335 304.774 488.931C305.264 489.619 305.386 490.141 305.294 490.963C305.147 492.276 304.265 492.996 303.266 493.733C302.537 493.422 301.409 492.961 300.84 492.384C300.166 491.701 300.161 491.419 300.118 490.524C300.673 489.233 301.628 488.565 302.693 487.689Z"/>
	<path fill="#FEFEFE" d="M233.929 263.945C234.902 263.995 235.756 264.114 236.578 264.686C237.466 265.304 237.578 265.732 237.822 266.754C237.425 268.163 236.862 268.542 235.844 269.564L235.236 269.795C234.439 269.738 233.83 269.583 233.252 268.978C232.627 268.323 232.374 267.133 232.445 266.242C232.53 265.17 233.197 264.633 233.929 263.945Z"/>
	<path fill="#FEFEFE" d="M382.843 153.513C383.546 154.199 383.842 155.971 384.232 156.95C385.035 157.716 385.803 157.874 386.843 158.142L387.277 158.251L387.244 158.452L388.006 158.423C387.683 158.757 387.878 158.624 387.318 158.799C387.122 158.861 386.923 158.915 386.727 158.978C384.837 159.584 384.46 160.424 383.596 162.073L383.352 162.546C382.594 161.909 382.56 160.979 382.305 160.039C381.633 159.192 380.708 159.084 379.712 158.81L379.207 158.676C379.455 158.323 379.301 158.48 379.749 158.192C381.955 156.774 382.189 155.931 382.843 153.513Z"/>
	<path fill="#FEFEFE" d="M147.66 296.943C148.756 296.804 150.19 296.826 151.021 297.694C151.624 298.323 152.011 299.084 151.902 299.979C151.758 301.148 151.012 301.784 150.206 302.536C149.114 302.484 147.635 302.486 146.784 301.667C146.12 301.026 145.816 300.48 145.901 299.529C145.997 298.455 146.939 297.648 147.66 296.943Z"/>
	<path fill="#FEFEFE" d="M159.647 262.687C159.128 261.883 158.942 261.318 159.138 260.367C159.372 259.232 160.073 258.385 161.066 257.817C161.952 257.311 163.134 257.066 164.11 257.457C165.066 257.84 165.069 258.266 165.345 259.16C165.322 260.028 165.303 260.83 165.093 261.68C163.544 262.758 161.494 262.457 159.647 262.687Z"/>
	<path fill="#FEFEFE" d="M267.004 157.362C269.421 159.664 269.293 163.159 270.82 164.591C271.729 165.444 272.884 164.438 274.087 165.386C275.045 166.142 276.125 168.727 276.155 169.899C276.172 170.536 275.568 170.829 275.14 171.237L274.481 171.704C271.48 170.691 270.632 162.432 267.326 161.016C266.755 160.771 266.372 160.602 265.898 160.174C266.121 159.18 266.582 158.284 267.004 157.362Z"/>
	<path fill="#FEFEFE" d="M558.822 263.998C559.555 264.756 559.651 266.42 560.232 267.392C561.188 268.993 563.309 269.28 564.981 269.781C563.928 270.163 562.815 270.503 561.802 270.981C560.282 271.698 559.895 273.396 559.34 274.853L558.937 274.808C558.61 273.657 558.245 272.311 557.419 271.407C555.898 269.743 552.848 269.967 550.781 269.843Q554.105 269.207 557.381 268.359C558.029 266.947 558.409 265.491 558.822 263.998Z"/>
	<path fill="#FEFEFE" d="M348.768 161.294C349.689 162.269 349.951 164.326 350.311 165.637C352.152 166.136 354.042 166.527 355.899 166.967Q353.13 167.712 350.374 168.501L349.415 172.669L349.134 173.235C348.175 172.207 347.896 169.641 347.534 168.229C346.459 167.824 345.423 167.461 344.456 166.826C344.869 166.002 346.334 165.538 347.186 165.12L348.768 161.294Z"/>
	<defs>
		<linearGradient id="gradient_0" gradientUnits="userSpaceOnUse" x1="393.87485" y1="351.26007" x2="396.18954" y2="346.58972">
			<stop offset="0" stop-color="#755F39"/>
			<stop offset="1" stop-color="#63584A"/>
		</linearGradient>
	</defs>
	<path fill="url(#gradient_0)" d="M385.877 350.998C390.115 349.763 394.045 347.169 398.174 345.476L400.345 350.025L399.681 350.382C398.233 350.346 396.81 351.165 395.422 351.571C392.3 351.159 389.027 351.167 385.877 350.998Z"/>
	<path fill="#DB982D" d="M338.188 385.966C339.284 386.357 339.91 386.483 340.38 387.689C340.711 388.541 340.859 389.555 341.019 390.456C340.583 391.409 340.511 391.925 339.468 392.386C337.729 393.157 334.876 392.969 333.2 392.115C332.502 391.759 332.113 391.415 331.781 390.69C333.788 388.746 335.761 387.32 338.188 385.966Z"/>
	<path fill="#FEFEFE" d="M558.409 405.226C559.418 406.222 559.591 408.325 560.338 409.615C561.282 411.247 563.202 411.544 564.878 412.049C564.059 412.349 563.229 412.648 562.433 413.01C560.92 413.698 560.124 414.921 559.554 416.435C559.284 417.149 559.147 417.543 558.541 418.054C558.204 416.606 557.647 415.199 557.156 413.797C554.838 413.099 552.596 412.746 550.197 412.446C552.709 412.079 554.882 411.581 557.241 410.662Q557.782 407.935 558.409 405.226Z"/>
	<path fill="#FEFEFE" d="M276.189 171.52C278.476 172.323 280.929 175.445 282.375 177.399C281.19 177.815 279.531 178.173 278.638 179.076C278.021 179.719 277.187 180.464 276.28 180.654C275.414 180.836 275.246 180.588 274.589 180.1C273.862 178.723 273.98 176.978 274.358 175.503C274.398 175.347 274.444 175.192 274.485 175.036C274.875 173.551 275.157 172.679 276.189 171.52Z"/>
	<path fill="#CDD2DA" d="M365.273 291.244C367.454 293.731 369.111 296.597 371.263 299.072C369.971 299.886 366.141 302.838 364.8 302.675C363.819 299.563 362.608 296.5 361.492 293.433C362.443 293.437 363.189 293.369 364.114 293.152C364.865 292.522 365.03 292.19 365.273 291.244Z"/>
	<path fill="#FBBA27" d="M282.437 177.595C283.287 177.477 284.393 176.726 285.256 176.415C289.247 174.979 297.32 171.374 301.046 170.823C301.87 171.46 301.822 171.781 302.087 172.762C296.315 175.214 290.144 177.411 284.622 180.379L283.746 179.706C283.382 178.807 283.189 178.246 282.437 177.595Z"/>
	<path fill="#FEFEFE" d="M206.528 559.894C207.37 560.352 208.181 561.13 208.936 561.733C205.008 566.879 200.678 571.795 196.539 576.776C195.62 576.17 194.756 575.342 193.902 574.642L206.528 559.894Z"/>
	<path fill="#FEFEFE" d="M519.944 310.074C520.68 311.043 520.874 313.682 521.247 314.991C523.901 316.386 526.701 316.955 529.605 317.584C527.74 317.878 525.734 318.079 523.921 318.594C521.355 319.323 521.159 322.676 520.026 324.678C519.958 324.798 519.878 324.911 519.804 325.027C519.132 323.196 518.767 321.309 518.372 319.405C515.392 318.207 512.288 317.966 509.126 317.63C512.434 317 515.351 316.559 518.164 314.55C518.89 313.091 519.412 311.609 519.944 310.074Z"/>
	<path fill="#FBBA27" d="M263.117 196.713C262.389 196.075 261.904 195.922 261.758 194.925C262.028 194.559 262.116 194.422 262.396 194.101C265.4 190.663 271.3 186.827 275.973 186.706C277.221 186.673 277.468 187.097 278.266 187.923L278.94 189.224C278.775 189.74 278.873 189.849 278.369 190.111C274.881 191.923 267.305 195.942 263.766 196.591L263.117 196.713Z"/>
	<path fill="#FEFEFE" d="M278.415 187.578C278.328 187.36 278.208 187.153 278.155 186.925C277.882 185.752 278.927 186.103 279.372 185.13C278.974 184.071 278.298 182.779 278.501 181.638C278.754 180.213 281.273 178.364 282.437 177.595C283.189 178.246 283.382 178.807 283.746 179.706L284.622 180.379C285.465 181.449 285.981 182.475 286.502 183.73L286.688 184.846C287.257 185.144 287.434 185.194 288.11 185.265C288.067 185.414 288.028 185.563 287.983 185.711C287.817 186.251 287.606 186.704 287.35 187.203C287.447 188.224 288.129 188.922 288.725 189.71L288.293 190.539L285.854 187.77L281.474 190.718C280.282 189.769 279.861 188.302 278.415 187.578Z"/>
	<path fill="#DB982D" d="M284.622 180.379C290.144 177.411 296.315 175.214 302.087 172.762C302.449 173.787 303.063 174.35 303.811 175.097C301.602 177.051 290.943 183.693 288.137 184.34C287.545 184.184 287.049 184.005 286.502 183.73C285.981 182.475 285.465 181.449 284.622 180.379Z"/>
	<path fill="#FEFEFE" d="M514.455 566.09C516.693 567.545 523.116 576.817 525.24 579.58C527.498 577.686 531.473 573.518 534.358 573.181L534.652 574.136C534.284 575.228 533.214 575.881 532.347 576.633C529.578 578.904 526.822 581.171 523.922 583.275C520.19 578.116 515.908 573.291 512.401 567.981C512.872 567.005 513.575 566.702 514.455 566.09Z"/>
	<defs>
		<linearGradient id="gradient_1" gradientUnits="userSpaceOnUse" x1="603.83215" y1="341.15781" x2="599.74481" y2="341.65253">
			<stop offset="0" stop-color="#A5B0BF"/>
			<stop offset="1" stop-color="#C8CFDE"/>
		</linearGradient>
	</defs>
	<path fill="url(#gradient_1)" d="M601.368 322.375C601.869 322.412 602.419 322.377 602.879 322.585C601.941 324.45 603.545 331.759 603.594 334.475C603.733 342.078 603.12 349.578 602.534 357.152C602.201 361.455 602.083 366.216 601.105 370.427C600.337 368.129 601.232 363.204 601.253 360.557C600.809 362.858 600.335 365.115 600.304 367.466C600.302 367.613 600.304 367.759 600.304 367.906L600.02 364.768C600.17 357.593 601.225 350.378 601.377 343.157C601.521 336.356 600.603 329.1 601.368 322.375Z"/>
	<path fill="#FEFEFE" d="M277.265 601.939C277.362 601.954 277.46 601.964 277.556 601.984C280.232 602.527 291.617 606.304 292.901 608.142L292.725 608.849C291.066 609.468 287.779 607.799 286.113 607.168C285.141 610.383 283.925 613.553 282.817 616.726C282.166 618.839 281.589 621.015 280.614 623.007C280.377 623.491 280.037 623.445 279.547 623.609C278.686 623.381 278.688 623.45 278.229 622.699C277.804 619.142 281.896 610.15 283.156 606.288C281.413 605.577 278.315 605.307 277.187 603.734C276.847 603.26 277.165 602.488 277.265 601.939Z"/>
	<path fill="#FEFEFE" d="M465.373 595.764L465.599 595.966C466.263 598.519 464.074 606.115 463.475 608.995C464.481 611.28 466.39 614.08 466.047 616.644C465.414 617.447 465.296 617.416 464.294 617.687C463.152 617.264 461.512 612.018 460.513 610.597C459.856 609.662 458.856 608.961 457.944 608.29L457.471 607.945C455.346 606.512 451.655 604.407 450.163 602.406C450.656 601.811 450.765 601.811 451.509 601.69C454.401 601.221 459.249 605.995 461.451 607.667C461.873 604.489 461.871 600.846 462.998 597.837C463.446 596.642 464.303 596.307 465.373 595.764Z"/>
	<path fill="#2D4171" d="M291.973 300.199C292.821 312.71 292.781 322.123 299.99 332.996C302.111 336.196 305.419 339.485 306.989 342.888L306.301 342.801C300.568 337.441 295.007 330.927 292.19 323.525C289.56 316.615 288.906 307.078 291.973 300.199Z"/>
	<path fill="#8694A4" d="M258.706 419.813C260.759 420.004 270.813 424.584 274.956 425.595C272.467 426.926 269.976 428.163 267.393 429.302C263.809 429.471 254.862 425.401 251.459 423.877C253.932 422.608 256.319 421.236 258.706 419.813Z"/>
	<path fill="#FEFEFE" d="M501.766 575.494C502.699 575.651 502.647 575.626 503.218 576.382C503.227 576.625 503.347 576.891 503.245 577.112C503.164 577.286 496.839 581.009 495.479 582.97C494.409 584.514 493.941 586.188 494.397 588.043C494.974 590.389 497.003 593.093 499.154 594.22C504.543 597.044 507.897 590.459 512.162 589.278L512.543 589.602C512.69 590.836 512.673 590.825 512.002 591.876C510.66 593.03 509.328 594.156 507.809 595.072C504.985 596.774 501.652 597.876 498.371 596.958Q497.921 596.828 497.486 596.654Q497.051 596.479 496.636 596.261Q496.221 596.043 495.83 595.784Q495.439 595.525 495.077 595.228Q494.714 594.931 494.384 594.598Q494.053 594.266 493.758 593.902Q493.463 593.538 493.206 593.145Q492.95 592.753 492.734 592.337Q492.497 591.89 492.308 591.421Q492.118 590.953 491.977 590.467Q491.837 589.981 491.747 589.483Q491.656 588.986 491.618 588.482Q491.579 587.977 491.592 587.472Q491.605 586.966 491.67 586.465Q491.735 585.963 491.851 585.471Q491.966 584.979 492.132 584.501C493.677 579.914 497.678 577.502 501.766 575.494Z"/>
	<path fill="#FEFEFE" d="M257.622 594.76C258.788 594.684 259.957 594.703 261.111 594.916C262.932 595.253 265.649 595.974 266.589 597.755C267.061 598.649 267.024 598.887 266.784 599.8L266.137 599.921C264.532 598.738 262.663 597.578 260.683 597.174C259.521 596.937 258.881 597.138 257.891 597.741C255.855 601.601 262.902 605.106 263.803 609.649C263.98 610.541 263.94 611.443 263.323 612.168C262.022 613.694 259.116 614.327 257.231 614.406C254.681 613.783 250.577 612.282 248.92 610.141C248.451 609.536 248.516 609.402 248.638 608.7L249.355 608.253C251.402 608.565 253.161 610.59 255.035 611.49C256.644 612.262 257.567 612.054 259.194 611.429C259.81 610.767 260.354 610.226 260.349 609.248C260.336 606.576 256.861 604.154 255.307 602.18C254.479 601.129 253.752 599.935 254.028 598.535C254.379 596.756 256.203 595.634 257.622 594.76Z"/>
	<path fill="#FEFEFE" d="M404.964 188.463C404.332 195.228 405.719 202.771 406.962 209.428C404.957 210.906 403.036 212.352 400.79 213.45C399.207 206.754 399.345 199.228 399.248 192.374C400.958 190.765 403.067 189.814 404.964 188.463Z"/>
	<path fill="#FEFEFE" d="M255.996 475.285C257.307 479.004 256.562 481.13 258.806 485.694C262.258 488.264 266.378 488.198 270.458 488.907C266.671 489.325 263.195 489.64 259.679 491.249C257.274 494.508 256.704 498.308 256.017 502.191L255.729 502.206C254.481 501.319 255.091 494.412 253.487 492.403C251.202 489.541 245.235 489.447 241.864 489.038Q247.522 487.955 252.962 486.057C254.807 482.436 255.437 479.306 255.996 475.285Z"/>
	<path fill="#FEFEFE" d="M167.484 517.54C170.127 520.115 173.506 524.637 175.362 527.791C174.988 528.592 174.901 528.62 174.131 529.07C172.607 528.474 168.909 522.987 167.648 521.423C166.185 522.75 164.512 523.866 162.919 525.031C164.769 527.439 166.877 529.751 168.555 532.271C168.445 533.112 168.373 533.099 167.744 533.687L166.986 533.641C164.867 531.329 163.061 528.755 161.207 526.232C159.415 527.713 157.571 529.058 155.659 530.378C157.305 532.626 162.26 537.479 162.081 540.078L161.374 540.482C159.662 540.146 153.441 531.022 151.964 529.028C156.744 524.867 162.379 521.339 167.484 517.54Z"/>
	<path fill="#8694A4" d="M454.944 288.422C456.907 289.178 459.265 291.259 461.112 292.396C464.181 294.286 467.363 295.846 470.616 297.383C468.652 299.237 466.477 300.634 464.16 302C460.754 302.481 451.539 295.515 448.44 293.24L454.944 288.422Z"/>
	<path fill="#FEFEFE" d="M542.168 540.449C542.733 540.7 542.647 540.604 543.023 540.925C546.618 543.994 553.163 548.869 553.282 553.918C553.342 556.506 552.023 559.002 550.195 560.769C548.345 562.558 545.698 564.012 543.055 563.882C538.78 563.671 533.618 556.518 530.905 553.533L530.294 552.725C530.638 551.724 531.579 551.186 532.373 550.501C535.28 553.527 539.334 559.417 543.484 560.506C545.026 560.91 546.732 560.75 548.111 559.923C549.38 559.162 550.107 557.889 550.419 556.468C551.777 550.288 543.403 547.178 540.513 542.749C540.687 541.682 541.434 541.214 542.168 540.449Z"/>
	<path fill="#FEFEFE" d="M183.995 538.312C185.014 538.629 185.749 539.615 186.492 540.374C183.281 543.392 176.578 547.932 175.86 552.385C175.645 553.72 175.998 554.99 176.829 556.052C177.866 557.378 179.473 558.703 181.207 558.808C185.138 559.045 189.461 553.166 191.961 550.665C192.746 549.879 193.566 549.026 194.741 549.019C195.569 549.566 195.865 549.858 196.259 550.773C193.123 554.136 187.953 561.37 182.959 561.479C180.202 561.539 177.624 560.008 175.784 558.048C174.087 556.24 172.775 553.822 172.883 551.281C173.091 546.388 180.548 541.464 183.995 538.312Z"/>
	<path fill="#2D4171" d="M583.713 159.623L584.966 161.981C579.124 164.729 574.174 169.393 568.373 172.124L568.124 171.894C566.057 168.459 563.614 165.185 561.451 161.796C567.016 160.382 579.562 162.226 583.713 159.623Z"/>
	<path fill="#FEFEFE" d="M237.54 582.262L240.576 584.087C239.56 590.108 239.313 599.001 237.807 604.285L237.291 604.451C236.389 604.121 235.697 603.904 235.033 603.166C235.026 600.971 235.423 598.787 235.727 596.616C234.355 595.915 233.017 595.145 231.669 594.398L228.532 592.475C226.728 593.649 224.992 594.963 223.239 596.214L220.259 594.485C226.143 590.565 231.795 586.374 237.54 582.262Z"/>
	<path fill="#2D4171" d="M237.107 585.852C237.831 587.189 236.345 592.79 236.054 594.57L232.533 592.546L230.046 591.077Q233.597 588.493 237.107 585.852Z"/>
	<path fill="#FEFEFE" d="M372.868 617.477C373.651 617.461 374.349 617.51 375.123 617.633L375.573 618.312C375.678 621.847 377.464 634.207 375.832 636.553C375.5 637.03 375.162 636.948 374.633 637.05C370.315 635.311 364.276 625.4 361.613 621.309C361.874 626.542 361.708 631.825 361.676 637.064L359.963 637.277C359.497 637.087 359.152 637.085 358.917 636.599C358.621 635.986 358.533 635.373 358.515 634.699C358.486 633.607 359.157 618.358 359.215 618.202C359.438 617.606 359.599 617.672 360.134 617.402C363.739 618.189 370.978 629.612 373.549 632.955Q373.075 625.222 372.868 617.477Z"/>
	<path fill="#FEFEFE" d="M203.851 317.877C204.54 318.856 203.263 324.594 203.08 326.114C202.413 331.672 202.522 337.186 202.58 342.771C200.319 344.25 198.143 345.873 195.948 347.45C194.411 344.68 196.173 326.694 197.045 322.892C198.95 321.004 201.657 319.449 203.851 317.877Z"/>
	<path fill="#FEFEFE" d="M303.293 610.215C305.147 610.571 307.023 610.838 308.867 611.24C311.172 611.743 313.91 612.688 315.171 614.846C315.832 615.977 316.006 617.294 315.595 618.544C314.935 620.555 312.721 621.527 310.994 622.426C313.327 625.044 313.261 628.482 313.363 631.826L312.834 632.37C312.05 632.305 311.5 632.122 310.932 631.534C309.909 630.476 310.065 629.065 309.971 627.7C309.856 626.434 309.804 625.045 309.071 623.955C307.9 622.213 305.461 621.955 303.565 621.505C303.185 623.046 302.774 624.599 302.494 626.161C302.41 626.634 302.354 627.142 302.2 627.6C301.935 628.388 301.251 629.168 300.424 629.377C299.836 629.525 299.425 629.486 298.932 629.181C298.275 627.504 302.501 613.308 303.293 610.215Z"/>
	<path fill="#192744" d="M305.697 612.602C307.836 613.034 310.566 613.459 312.04 615.251C312.553 615.873 312.746 616.507 312.696 617.307C312.616 618.609 311.577 619.511 310.702 620.353C308.271 620.736 306.4 620.247 304.069 619.625L305.697 612.602Z"/>
	<path fill="#8694A4" d="M312.695 384.623C316.077 381.901 320.07 379.963 323.621 377.452C329.098 379.994 336.16 381.856 340.974 385.436C340.066 385.584 339.052 385.656 338.188 385.966C335.761 387.32 333.788 388.746 331.781 390.69C331.366 390.882 331.094 391.022 330.646 391.166C327.769 392.094 315.977 386.086 312.695 384.623Z"/>
	<path fill="#FEFEFE" d="M437.6 606.316L438.569 606.512C438.86 606.852 439.142 607.165 439.327 607.58C440.653 610.562 445.796 622.407 444.893 624.798C444.34 625.005 444.405 625.142 443.993 624.903C441.42 623.412 438.252 612.821 437.066 609.601C436.926 612.789 436.534 625.35 434.555 627.257C434.14 627.657 433.839 627.533 433.304 627.55C429.629 625.736 426.222 619.207 423.837 615.755L423.188 614.903C422.137 618.365 426.629 627.335 424.842 630.202C423.89 630.446 423.821 630.481 422.911 630.131C421.55 628.541 420.143 614.649 419.716 611.474L423.257 610.51C426.563 615.219 430.099 619.776 433.426 624.477C433.568 620.662 433.797 611.175 435.303 607.892C435.809 606.79 436.557 606.731 437.6 606.316Z"/>
	<path fill="#CDD2DA" d="M163.928 479.421C166.725 481.799 168.831 485.19 171.14 488.036C174.988 492.78 179.159 497.674 183.373 502.087Q192.568 511.852 202.687 520.656Q212.806 529.461 223.748 537.218C230.003 541.608 236.701 545.52 243.123 549.673C242.194 550.04 242.008 550.102 241.401 550.88C217.508 538.167 193.947 517.494 176.105 497.16C171.365 491.757 166.085 486.43 163.928 479.421Z"/>
	<path fill="#2D4171" d="M285.854 187.77L288.293 190.539L288.725 189.71C289.108 190.065 298.807 203.779 298.829 203.844C300.582 206.607 302.229 209.362 303.753 212.261C305.284 214.861 312.54 223.645 312.197 225.981L311.121 226.653C309.719 224.934 308.824 222.484 307.233 221.024L306.346 221.251C305.456 222.16 304.475 223.052 303.776 224.117C301.369 217.531 296.546 212.689 293.058 206.756L291.849 207.284C289.366 205.161 283.718 194.83 281.32 191.327L281.474 190.718L285.854 187.77Z"/>
	<path fill="#576B98" d="M288.725 189.71C289.108 190.065 298.807 203.779 298.829 203.844C300.582 206.607 302.229 209.362 303.753 212.261C303.645 212.211 303.536 212.162 303.429 212.11C303.275 212.036 303.124 211.954 302.968 211.882C301.281 211.099 300.082 209.124 298.854 207.735L298.18 207.862C297.477 207.019 297.217 205.813 296.57 204.883C296.582 201.799 290.36 193.222 288.293 190.539L288.725 189.71Z"/>
	<path fill="#8694A4" d="M298.18 207.862L298.854 207.735C300.082 209.124 301.281 211.099 302.968 211.882C303.124 211.954 303.275 212.036 303.429 212.11C303.536 212.162 303.645 212.211 303.753 212.261C305.284 214.861 312.54 223.645 312.197 225.981L311.121 226.653C309.719 224.934 308.824 222.484 307.233 221.024L306.346 221.251C306.046 221.087 305.67 221.017 305.446 220.759C304.778 219.986 304.204 217.878 303.651 216.88C301.944 213.796 299.822 210.977 298.18 207.862Z"/>
	<path fill="#FEFEFE" d="M560.548 520.366C561.062 520.311 561.562 520.285 562.079 520.311C567.054 520.563 563.841 523.876 565.924 526.149C566.99 525.709 568.094 525.197 569.211 524.906C570.189 524.652 571.259 524.691 572.107 525.294C573.295 526.139 573.76 527.773 573.843 529.158C574.154 534.319 569.83 538.345 566.718 541.981C564.218 540.983 554.772 532.23 551.699 529.838C553.93 526.209 556.701 522.366 560.548 520.366Z"/>
	<path fill="#192744" d="M560.359 523.173C561.091 523.335 561.584 523.435 562.236 523.834C562.84 524.204 563.237 524.841 563.334 525.55C563.56 527.215 562.799 528.957 561.782 530.236C561.083 531.114 560.629 531.797 559.506 531.887L555.148 528.519C556.669 526.224 557.927 524.607 560.359 523.173Z"/>
	<path fill="#192744" d="M567.249 528.086C567.382 528.089 567.516 528.087 567.649 528.094C568.844 528.155 570.108 528.332 570.855 529.41C571.482 530.316 571.313 531.496 571.011 532.485C570.461 534.288 568.911 536.816 567.263 537.761L566.578 537.547C564.804 536.293 563.125 534.87 561.427 533.514C563.219 531.31 564.829 529.584 567.249 528.086Z"/>
	<path fill="#FEFEFE" d="M274.282 272.245C274.384 272.365 274.55 272.452 274.588 272.605C274.763 273.318 273.673 276.283 273.443 277.223C271.878 283.61 271.606 289.703 272.209 296.24C268.002 298.654 264.118 301.598 259.936 304.076L259.582 303.55Q259.265 300.664 259.166 297.763Q259.067 294.862 259.188 291.962Q259.309 289.061 259.648 286.178Q259.988 283.295 260.544 280.446C264.974 277.521 269.703 274.935 274.282 272.245Z"/>
	<path fill="#919DA8" d="M396.628 325.353C401.999 327.782 406.416 332.469 411.816 334.95C406.606 338.774 401.281 341.618 395.347 344.14C389.787 341.83 384.736 339.276 379.576 336.191C385.339 332.883 391.078 329.026 396.628 325.353Z"/>
	<path fill="#8694A4" d="M429.838 260.304C435.5 269.315 446.053 281.181 454.584 287.544C452.054 289.142 449.721 290.817 447.407 292.71C439.447 286.21 426.733 273.972 423.017 264.486C423.009 264.465 422.996 264.447 422.985 264.428L424.59 263.276C426.307 262.033 427.913 261.173 429.838 260.304Z"/>
	<path fill="#FEFEFE" d="M396.307 615.307C398.943 615.068 401.407 614.996 403.828 616.236C406.299 617.502 408.014 619.747 408.729 622.417C409.423 625.006 409.2 627.943 407.801 630.266C406.101 633.09 403.545 634.259 400.464 635.024C398.103 635.32 395.843 635.333 393.63 634.335C391.295 633.281 389.571 631.353 388.74 628.935C387.842 626.319 387.971 623.262 389.201 620.773C390.74 617.66 393.205 616.402 396.307 615.307Z"/>
	<path fill="#192744" d="M396.131 617.46C397.467 617.322 398.897 617.119 400.217 617.469C402.086 617.965 403.795 619.413 404.77 621.06C405.982 623.106 406.381 625.63 405.66 627.915C404.869 630.422 403.193 631.738 400.911 632.85C399.581 633.066 398.339 633.217 397.011 632.889C395.163 632.431 393.452 631.162 392.472 629.53Q392.246 629.152 392.059 628.753Q391.872 628.354 391.727 627.939Q391.581 627.523 391.479 627.094Q391.377 626.666 391.318 626.23Q391.26 625.793 391.246 625.353Q391.232 624.913 391.263 624.473Q391.294 624.034 391.369 623.6Q391.444 623.166 391.563 622.742C392.301 620.092 393.793 618.757 396.131 617.46Z"/>
	<path fill="#FEFEFE" d="M334.011 616.004C336.692 615.804 339.233 615.914 341.652 617.22Q342.09 617.454 342.501 617.732Q342.912 618.011 343.292 618.33Q343.672 618.649 344.017 619.007Q344.362 619.364 344.668 619.754Q344.974 620.145 345.238 620.566Q345.502 620.986 345.721 621.432Q345.94 621.877 346.112 622.343Q346.284 622.809 346.406 623.29C347.091 625.931 346.769 628.955 345.339 631.302C343.736 633.935 341.573 635.006 338.69 635.775C335.962 635.969 333.402 635.92 330.912 634.664C328.652 633.525 326.899 631.561 326.14 629.136C325.334 626.558 325.578 623.636 326.875 621.255C328.506 618.262 330.914 617.006 334.011 616.004Z"/>
	<path fill="#192744" d="M334.146 618.14C335.428 618.057 336.778 617.911 338.038 618.234C340.073 618.755 341.853 620.236 342.787 622.109C343.82 624.18 343.912 626.736 343.085 628.893C342.147 631.339 340.502 632.694 338.163 633.717C336.886 633.86 335.605 633.89 334.344 633.592C332.523 633.16 330.886 631.884 329.942 630.28C328.863 628.445 328.659 626.178 329.183 624.135C329.917 621.27 331.646 619.55 334.146 618.14Z"/>
	<path fill="#8694A4" d="M224.729 393.675C225.058 394.034 225.345 394.272 225.728 394.569C227.967 396.309 229.79 399.55 231.897 401.655Q233.289 403.054 234.749 404.38Q236.21 405.707 237.736 406.958Q239.262 408.208 240.85 409.38Q242.438 410.552 244.083 411.642Q245.727 412.732 247.425 413.737Q249.123 414.742 250.87 415.66Q252.617 416.578 254.408 417.406Q256.199 418.234 258.03 418.97C255.43 420.623 252.848 422.323 250.179 423.862C239.335 419.028 224.834 409.386 218.437 399.106C218.385 399.023 218.295 398.971 218.223 398.903C218.339 398.834 218.454 398.763 218.571 398.695C220.882 397.364 222.769 395.467 224.729 393.675Z"/>
	<path fill="#946D2C" d="M278.415 187.578C279.861 188.302 280.282 189.769 281.474 190.718L281.32 191.327C283.718 194.83 289.366 205.161 291.849 207.284C288.743 209.967 281.885 210.754 277.874 211.859C272.641 207.406 267.557 201.961 263.117 196.713L263.766 196.591C267.305 195.942 274.881 191.923 278.369 190.111C278.873 189.849 278.775 189.74 278.94 189.224L278.266 187.923L278.415 187.578Z"/>
	<path fill="#FEFEFE" d="M217.061 210.152C219.044 211.634 219.695 221.937 221.756 225.038C225.073 230.03 236.327 230.688 241.938 231.803C237.148 232.552 228.669 233.049 224.633 235.489C219.859 238.375 218.975 246.922 217.823 251.938C217.717 251.888 217.223 251.438 217.169 251.335C216.872 250.768 216.765 249.487 216.613 248.801C215.765 244.983 215.032 240.622 212.644 237.413C209.062 232.598 198.71 232.585 193.103 231.855C197.785 230.557 207.764 229.676 211.382 227.178C215.794 224.134 216.168 214.948 217.061 210.152Z"/>
	<path fill="#FEFEFE" d="M400.949 214.936C403.242 213.529 405.395 212.06 407.52 210.411Q408.659 215.311 410.149 220.116Q411.64 224.921 413.473 229.606Q415.307 234.291 417.474 238.831Q419.641 243.371 422.13 247.743C424.432 251.874 427.586 255.503 429.601 259.789L429.838 260.304C427.913 261.173 426.307 262.033 424.59 263.276L422.985 264.428C411.498 248.527 406.901 233.264 400.949 214.936Z"/>
	<path fill="#CDD2DA" d="M600.02 364.768L600.304 367.906C600.304 367.759 600.302 367.613 600.304 367.466C600.335 365.115 600.809 362.858 601.253 360.557C601.232 363.204 600.337 368.129 601.105 370.427C601.05 375.976 599.536 381.977 598.557 387.448Q597.448 393.525 596.019 399.535Q594.59 405.545 592.845 411.471Q591.1 417.396 589.044 423.222Q586.987 429.047 584.626 434.755Q582.265 440.464 579.605 446.039Q576.944 451.614 573.993 457.041Q571.042 462.468 567.807 467.731Q564.573 472.994 561.065 478.079C555.199 486.706 548.676 495.304 541.223 502.632C536.249 507.523 531.314 513.331 525.488 517.163C517.341 524.422 507.33 532.972 498.074 538.637C497.466 538.361 496.7 538.232 496.051 538.054C496.843 537.469 498.289 536.672 498.663 535.802L499.165 535.133C503.256 534.934 520.986 518.511 524.874 515.247C525.84 514.012 527.588 512.892 528.759 511.772L540.262 500.557C544.787 496.095 548.735 490.716 552.774 485.801C556.396 481.395 559.345 476.616 562.429 471.836Q565.331 467.398 568.031 462.835Q570.732 458.271 573.224 453.591Q575.717 448.911 577.997 444.124Q580.277 439.337 582.34 434.453Q584.403 429.568 586.245 424.596Q588.087 419.623 589.703 414.573Q591.32 409.523 592.708 404.406Q594.097 399.289 595.254 394.114C597.411 384.409 598.313 374.539 600.02 364.768Z"/>
	<path fill="#FEFEFE" d="M328.188 263.574C333.55 260.539 338.528 256.549 343.735 253.219C348.801 266.642 356.104 280.184 365.273 291.244C365.03 292.19 364.865 292.522 364.114 293.152C363.189 293.369 362.443 293.437 361.492 293.433C361.128 292.673 360.696 291.965 360.241 291.258C353.721 281.121 344.585 275.489 332.987 272.946Q330.705 268.2 328.188 263.574Z"/>
	<path fill="#946D2C" d="M303.811 175.097C306.962 178.012 308.921 182.242 311.262 185.802C312.877 188.259 314.718 190.579 316.533 192.89C311.373 197.034 305.935 199.25 300.271 202.436C299.783 202.901 299.3 203.361 298.829 203.844C298.807 203.779 289.108 190.065 288.725 189.71C288.129 188.922 287.447 188.224 287.35 187.203C287.606 186.704 287.817 186.251 287.983 185.711C288.028 185.563 288.067 185.414 288.11 185.265C287.434 185.194 287.257 185.144 286.688 184.846L286.502 183.73C287.049 184.005 287.545 184.184 288.137 184.34C290.943 183.693 301.602 177.051 303.811 175.097Z"/>
	<path fill="#2D4171" d="M288.11 185.265C290.1 185.656 291.948 188.618 293.046 190.247C295.438 193.795 299.167 198.292 300.271 202.436C299.783 202.901 299.3 203.361 298.829 203.844C298.807 203.779 289.108 190.065 288.725 189.71C288.129 188.922 287.447 188.224 287.35 187.203C287.606 186.704 287.817 186.251 287.983 185.711C288.028 185.563 288.067 185.414 288.11 185.265Z"/>
	<path fill="#FEFEFE" d="M195.695 349.025C198.01 347.421 200.382 345.983 202.604 344.24C203.948 349.821 205.109 355.531 206.913 360.983C210.788 372.689 217.67 383.652 224.729 393.675C222.769 395.467 220.882 397.364 218.571 398.695C218.454 398.763 218.339 398.834 218.223 398.903C207.163 387.231 197.863 364.87 195.695 349.025Z"/>
	<path fill="#FEFEFE" d="M558.013 328.68C559.342 329.789 561.165 345.407 564.282 350.001C571.573 353.792 580.1 353.635 587.945 355.656C579.688 357.14 571.549 357.658 564.067 361.806C560.975 367.19 560.024 373.752 558.719 379.738L558.349 380.757C556.266 378.175 556.661 368.013 554.035 363.683C550.032 357.08 537.986 357.327 531.21 355.786C537.324 353.85 544.944 354.315 550.525 351.037C556.13 347.746 556.637 334.556 558.013 328.68Z"/>
	<path fill="#919DA8" d="M371.263 299.072C377.068 307.186 387.953 318.835 396.004 324.782C390.165 328.296 384.424 331.684 378.862 335.637C374.156 331.571 369.093 326.562 365.604 321.393C365.997 314.87 366.215 309.111 364.8 302.675C366.141 302.838 369.971 299.886 371.263 299.072Z"/>
	<path fill="#8694A4" d="M324.708 376.722C327.619 374.641 335.387 370.953 338.897 369.318C343.262 367.284 347.889 365.769 352.38 364.036Q359.829 361.097 367.007 357.546C371.11 355.509 380.49 350.148 384.387 349.879L383.377 351.082L383.562 351.627C385.965 352.459 388.897 352.186 391.43 352.248C392.873 352.419 394.641 352.43 395.884 353.244C394.119 353.942 384.434 353.22 382.597 352.471C382.406 352.394 382.219 352.306 382.03 352.224L382.189 353.175C384.465 355.995 385.559 359.66 387.742 362.62C388.112 363.121 388.457 363.643 388.813 364.154C387.418 364.7 384.432 365.47 383.443 366.533C379.585 368.381 374.324 369.524 370.931 371.96C368.765 370.104 366.596 368.219 364.795 365.993L364.4 366.199C358.37 369.409 349.793 380.66 343.749 382.483C341.82 383.064 339.931 382.76 338.039 382.185C333.413 380.778 329.234 378.315 324.708 376.722Z"/>
	<path fill="#192744" d="M366.165 365.18C371.373 360.771 376.564 356.313 382.03 352.224L382.189 353.175C382.301 357.025 384.43 360.47 386.495 363.585C384.404 364.201 382.756 364.857 380.95 366.099C380.26 366.573 380.075 366.438 379.267 366.331C378.708 366.257 379.008 366.204 378.444 366.586C376.331 368.016 373.407 370.097 370.733 369.443C368.428 368.879 367.39 367.011 366.165 365.18Z"/>
	<path fill="#946D2C" d="M250.984 430.933C255.923 432.07 260.103 434.507 265.242 435.266C257.182 439.307 249.963 445.263 242.524 450.349C229.352 459.355 215.947 467.988 202.933 477.235C200.572 478.017 191.976 474.436 189.036 473.48C193.77 469.675 198.854 466.625 203.899 463.286L228.111 447.026C232.846 443.803 237.683 440.553 242.302 437.179C245.17 435.084 247.876 432.666 250.984 430.933Z"/>
	<path fill="#919DA8" d="M311.844 385.447C317.285 387.49 322.481 390.056 327.982 391.964C323.317 393.751 319.721 397.148 315.533 399.773C302.372 408.02 289.476 416.715 276.236 424.837C270.625 423.344 265.588 421.053 260.172 419.049C267.747 415.395 274.833 409.916 281.794 405.223C291.731 398.523 301.805 391.999 311.844 385.447Z"/>
	<path fill="#946D2C" d="M534.618 247.068C536.916 247.855 541.063 251.464 543.85 252.814C539.623 255.473 535.677 258.52 531.481 261.214L499.455 281.377C493.031 285.471 486.887 290.371 480.033 293.748C478.952 293.714 478.614 293.344 477.726 292.756C473.991 291.338 470.277 289.911 466.618 288.303C471.893 286.022 476.748 282.65 481.591 279.589L498.823 268.751C510.58 261.281 522.673 254.233 534.618 247.068Z"/>
	<path fill="#919DA8" d="M447.15 294.171L448.561 295.687C451.277 295.798 452.921 297.193 454.924 298.86C457.077 300.491 459.537 301.731 461.994 302.829Q437.548 318.991 412.57 334.316C408.957 330.667 402.439 327.607 397.982 324.779C402.485 323.082 406.417 319.809 410.494 317.304C422.783 309.756 435.186 302.224 447.15 294.171Z"/>
	<path fill="#414A58" d="M448.561 295.687C451.277 295.798 452.921 297.193 454.924 298.86L453.817 299.362C451.626 299.332 449.984 297.138 448.561 295.687Z"/>
	<path fill="#FEFEFE" d="M259.408 305.833C263.952 303.6 268.078 300.436 272.439 297.848C273.724 301.598 274.558 305.505 275.806 309.274C280.639 323.872 287.857 334.193 299.407 344.404C296.935 346.927 292.777 348.653 289.715 350.484Q285.854 352.797 282.286 355.54C279.09 351.072 275.685 346.629 272.815 341.947C266.494 331.635 260.918 317.828 259.408 305.833Z"/>
	<path fill="#FBBA27" d="M480.544 141.695C482.959 139.207 489.054 136.393 492.171 134.371C501.588 128.263 510.855 121.868 520.202 115.647C525.497 112.123 531.077 108.972 536.103 105.067C536.539 110.404 538.313 115.34 539.918 120.414C537.843 121.526 535.807 122.628 533.862 123.958C523.003 130.949 512.282 138.243 501.543 145.426C495.027 149.784 488.196 153.756 482.076 158.67C481.369 153.439 479.992 147.763 480.478 142.499L480.544 141.695Z"/>
	<path fill="#2D4171" d="M395.422 351.571C396.81 351.165 398.233 350.346 399.681 350.382C406.909 356.026 412.398 365.741 420.079 369.725C420.33 370.39 420.425 370.276 420.146 370.992C417.941 372.582 383.888 392.049 383.354 392.122C380.734 392.452 378.52 395.273 376.327 396.578C375.609 397.006 375.608 397.078 374.765 396.868L374.539 396.031C374.877 394.898 375.52 394.473 376.353 393.652C375.26 387.397 372.239 380.043 372.283 373.868C372.338 373.767 372.381 373.659 372.448 373.566C373.29 372.404 375.853 371.294 377.266 371.179C378.052 371.116 378.168 371.281 378.748 371.744C380.026 374.094 381.342 377.376 383.806 378.65C384.748 378.607 385.126 378.593 385.805 377.82C386.737 376.761 386.339 375.595 386.433 374.298C386.968 374.584 387.226 374.883 387.617 375.327C388.061 375.831 388.487 376.296 389.213 376.348C389.618 376.377 390.093 376.284 390.494 376.223C389.143 374.953 387.814 373.792 386.849 372.188C386.742 372.112 386.626 372.047 386.526 371.961C385.327 370.918 383.848 368.806 383.606 367.228L383.814 367.03L383.443 366.533C384.432 365.47 387.418 364.7 388.813 364.154C388.457 363.643 388.112 363.121 387.742 362.62C385.559 359.66 384.465 355.995 382.189 353.175L382.03 352.224C382.219 352.306 382.406 352.394 382.597 352.471C384.434 353.22 394.119 353.942 395.884 353.244C394.641 352.43 392.873 352.419 391.43 352.248C392.797 352.179 394.206 352.265 395.422 351.571Z"/>
	<path fill="#414A58" d="M386.849 372.188C388.99 372.518 390.284 375.625 392.48 374.487C393.951 376.2 394.827 378.018 395.548 380.145L394.399 380.842Q392.952 378.762 391.436 376.732C391.001 376.145 391.298 376.341 390.494 376.223C389.143 374.953 387.814 373.792 386.849 372.188Z"/>
	<path fill="#FBBA27" d="M378.748 371.744C380.026 374.094 381.342 377.376 383.806 378.65C384.748 378.607 385.126 378.593 385.805 377.82C386.737 376.761 386.339 375.595 386.433 374.298C386.968 374.584 387.226 374.883 387.617 375.327C388.061 375.831 388.487 376.296 389.213 376.348C389.618 376.377 390.093 376.284 390.494 376.223C391.298 376.341 391.001 376.145 391.436 376.732Q392.952 378.762 394.399 380.842C389.567 382.665 385.517 386.551 380.693 388.618C380.458 385.974 379.534 383.155 379.601 380.56C379.826 380.343 380.261 379.944 380.429 379.697C381.592 377.984 379.114 374.281 378.827 372.347C378.797 372.146 378.774 371.945 378.748 371.744Z"/>
	<path fill="#FBBA27" d="M391.439 361.54C392.132 359.865 393.425 356.699 394.995 355.854C395.602 356.945 395.86 357.868 397.074 358.276C401.719 361.984 405.829 366.732 409.779 371.158C405.791 375.253 400.146 376.861 395.548 380.145C394.827 378.018 393.951 376.2 392.48 374.487C391.056 371.944 388.601 369.527 387.853 366.761C388.266 365.625 388.696 365.425 389.621 364.682C390.425 363.85 390.918 362.576 391.439 361.54Z"/>
	<path fill="#FEFEFE" d="M259.009 281.389C259.692 282.55 258.413 287.503 258.259 289.225C257.784 294.547 258.015 299.708 258.381 305.02C249.523 310.113 240.926 316.431 232.466 322.188C223.139 328.535 213.638 334.644 204.228 340.867C204.164 340.791 204.079 340.729 204.037 340.639C202.55 337.464 204.497 320.624 205.532 317.297C208.642 314.196 212.583 312.552 216.144 310.089C225.705 303.476 235.357 296.926 245.057 290.512C249.697 287.444 254.515 284.68 259.009 281.389Z"/>
	<path fill="#FBBA27" d="M189.319 330.632C189.346 330.666 189.676 348.572 189.85 350.72C185.079 353.296 180.982 356.767 176.537 359.829C170.802 363.779 126.695 394.142 125.09 394.164Q123.926 385.72 123.157 377.231C127.245 374.825 130.89 371.77 134.823 369.129Q153.343 356.816 171.264 343.647C177.27 339.302 183.94 335.788 189.319 330.632Z"/>
	<path fill="#FBBA27" d="M459.214 154.111C464.054 153.379 473.913 145.697 478.54 142.929C478.778 148.495 480.234 153.977 480.837 159.519L434.441 189.866C426.977 194.751 419.841 200.223 411.962 204.452C411.361 198.753 410.93 193.028 410.283 187.337C414.893 184.516 419.159 181.323 423.633 178.309L451.915 159.444C454.412 157.756 456.723 155.765 459.214 154.111Z"/>
	<path fill="#FEFEFE" d="M397.523 192.69C398.01 192.495 398.721 192.464 399.248 192.374C399.345 199.228 399.207 206.754 400.79 213.45L400.192 213.369L399.444 213.968C395.534 218.055 386.807 222.921 381.83 226.184L344.371 250.551C342.317 243.754 341.791 237.229 341.899 230.143C339.259 236.428 341.733 245.279 343.508 251.517C341.062 253.326 338.469 254.873 335.985 256.617C332.911 258.776 329.955 261.104 326.675 262.948C323.947 257.765 322.662 251.869 321.289 246.203C321.095 244.481 320.583 242.744 320.192 241.055L323.534 239.223C329.76 236.386 335.243 231.771 340.797 227.791C342.291 226.72 343.893 225.257 345.489 224.394C345.583 224.344 346.246 224.051 346.326 224.085C346.819 224.297 346.535 224.849 347.309 224.848C348.795 224.846 350.707 223.631 351.969 222.842C354.698 221.135 357.166 218.969 359.836 217.161C366.655 212.545 373.742 208.213 380.629 203.675C386.231 199.983 392.294 196.904 397.523 192.69Z"/>
	<path fill="#2D4171" d="M397.523 192.69C398.01 192.495 398.721 192.464 399.248 192.374C399.345 199.228 399.207 206.754 400.79 213.45L400.192 213.369L399.444 213.968C398.382 209.174 398.178 204.132 397.93 199.236C397.826 197.165 398.145 194.651 397.523 192.69Z"/>
	<path fill="#FEFEFE" d="M306.346 221.251L307.233 221.024C308.824 222.484 309.719 224.934 311.121 226.653C311.882 227.512 312.223 228.217 313.438 228.381C314.354 228.505 315.4 228.441 316.328 228.447C316.218 231.032 312.243 232.647 311.812 234.966C312.394 235.034 312.323 235.146 312.739 234.838C313.266 234.447 313.469 234.074 313.822 233.541C314.786 232.088 316.023 230.837 317.816 230.524C319.185 230.285 320.609 230.828 321.669 231.681C322.801 232.592 323.885 233.806 324.283 235.22C324.166 235.988 324.027 236.502 323.654 237.184C323.359 237.718 323.073 238.249 322.812 238.8L323.534 239.223L320.192 241.055C320.583 242.744 321.095 244.481 321.289 246.203L320.568 246.376C321.226 250.785 323.717 261.101 325.818 264.677L327.177 264.829C329.112 266.211 330.452 270.33 331.453 272.512C323.504 270.827 315.875 271.987 308.738 275.838Q307.741 276.374 306.772 276.959Q305.802 277.544 304.863 278.176Q303.923 278.808 303.016 279.485Q302.109 280.162 301.236 280.884Q300.363 281.605 299.527 282.368Q298.691 283.131 297.893 283.935Q297.096 284.738 296.339 285.58Q295.581 286.422 294.867 287.3Q294.152 288.178 293.481 289.09Q292.811 290.003 292.186 290.947Q291.561 291.891 290.983 292.864Q290.406 293.838 289.877 294.839Q289.348 295.84 288.869 296.866Q288.39 297.892 287.962 298.94Q287.534 299.988 287.158 301.056Q286.782 302.124 286.459 303.209C282.878 315.656 285.792 324.058 291.812 334.808C282.248 326.139 277.711 313.023 274.357 300.904C271.962 292.249 272.033 281.234 275.689 272.921C277.16 269.576 279.321 266.408 281.127 263.228C283.929 261.488 287.112 260.35 290.039 258.824C293.69 256.92 313.232 246.319 314.364 244.057C312.059 242.429 307.854 234.491 307.488 231.676C307.41 231.071 308.446 230.046 308.836 229.531C308.428 229.51 307.974 229.506 307.58 229.389C305.484 228.766 304.587 225.906 303.776 224.117C304.475 223.052 305.456 222.16 306.346 221.251Z"/>
	<path fill="#2D4171" d="M318.02 240.698L313.009 234.839C315.104 236.523 317.145 237.966 319.474 239.314C320.992 238.83 322.29 237.991 323.654 237.184C323.359 237.718 323.073 238.249 322.812 238.8L323.534 239.223L320.192 241.055C320.583 242.744 321.095 244.481 321.289 246.203L320.568 246.376C320.316 244.604 319.774 243.032 319.179 241.358C317.957 242.196 316.588 242.864 315.288 243.576L318.02 240.698Z"/>
	<path fill="#919DA8" d="M372.257 298.416C375.87 296.509 379.096 293.968 382.473 291.685C387.806 288.08 393.234 284.652 398.55 281.01C406.223 275.754 414.186 271.024 421.735 265.562C428.545 276.334 436.821 284.946 446.258 293.398C430.099 303.947 413.626 314.012 397.31 324.311C390.915 318.803 375.68 305.089 372.257 298.416Z"/>
	<path fill="#919DA8" d="M365.478 323.652C371.171 330.112 376.042 335.625 383.692 339.837C386.671 341.477 389.827 342.788 392.795 344.443C390.469 346.766 387.159 348.112 384.387 349.879C380.49 350.148 371.11 355.509 367.007 357.546Q359.829 361.097 352.38 364.036C347.889 365.769 343.262 367.284 338.897 369.318C335.387 370.953 327.619 374.641 324.708 376.722C319.315 374.73 313.476 370.44 308.907 366.963C306.238 364.931 300.849 359.517 297.913 358.71L297.826 359.237C303.218 364.804 315.779 373.515 322.472 377.067C319.002 379.262 315.528 381.741 311.798 383.466C301.027 375.812 289.642 366.656 282.286 355.54Q285.854 352.797 289.715 350.484C292.777 348.653 296.935 346.927 299.407 344.404C302.156 346.465 304.935 348.609 308.036 350.119C315.168 353.594 324.96 354.215 332.707 353.074C343.092 351.543 352.113 345.787 358.34 337.36C361.328 333.315 363.786 328.376 365.478 323.652Z"/>
	<path fill="#2D4171" d="M323.65 279.391C329.634 279.091 335.217 279.238 340.646 282.064C346.063 284.884 350.994 289.777 352.758 295.735C354.457 301.476 353.114 307.784 350.297 312.946C345.339 322.031 337.773 327.768 327.938 330.679C321.074 331.941 314.097 331.994 308.086 327.929C303.029 324.509 299.285 318.747 298.184 312.747C296.802 305.214 299.296 297.759 303.574 291.576C308.204 284.886 315.756 280.797 323.65 279.391Z"/>
	<path fill="#919DA8" d="M281.594 356.409C286.056 363.133 292.361 369.762 298.668 374.84C302.809 378.174 307.284 381.154 311.345 384.574C301.07 391.016 291.004 397.701 280.956 404.489C274.039 409.162 266.896 414.844 259.26 418.285C246.133 412.716 234.913 404.899 226.599 393.188C233.413 389.816 239.45 384.492 245.807 380.324L269.145 364.903C273.319 362.137 277.738 359.609 281.594 356.409Z"/>
	<path fill="#946D2C" d="M214.166 404.152C224.944 416.034 235.003 423.928 249.777 430.359C234.758 441.067 219.334 451.164 204.189 461.685C198.697 465.501 193.101 468.474 188.253 473.167C178.211 469.806 166.151 462.85 157.852 456.351C154.805 453.966 151.983 450.574 148.786 448.536C154.229 443.981 160.334 440.611 166.183 436.649C175.975 430.017 185.617 423.05 195.528 416.611C200.089 413.647 210.634 407.505 214.166 404.152Z"/>
	<path fill="#FEFEFE" d="M344.598 252.117C356.183 244.867 367.519 237.185 378.894 229.598C385.913 224.917 392.979 220.552 399.826 215.592C402.769 225.454 405.95 235.587 410.343 244.906C413.682 251.989 417.886 258.745 421.735 265.562C414.186 271.024 406.223 275.754 398.55 281.01C393.234 284.652 387.806 288.08 382.473 291.685C379.096 293.968 375.87 296.509 372.257 298.416C368.996 293.503 364.909 289.451 361.432 284.744C356.065 277.478 347.016 260.59 344.598 252.117Z"/>
	<path fill="#946D2C" d="M505.79 212.705L506.046 213.034C508.359 216.042 510.199 219.389 512.557 222.361C516.282 227.057 520.203 231.962 524.279 236.352C527.404 239.718 530.829 242.807 533.993 246.14C522.377 253.064 510.747 259.953 499.243 267.065C496.098 269.01 493.12 271.199 489.965 273.135C481.924 278.069 473.635 282.712 465.739 287.867C456.327 282.915 448.599 274.159 441.842 266.139C439.544 263.41 437.105 260.817 435.393 257.669C440.909 253.856 446.876 250.626 452.544 247.044C455.456 245.204 458.207 243.119 461.111 241.267C472.869 233.767 484.792 226.472 496.367 218.694C499.449 216.623 502.807 214.877 505.79 212.705Z"/>
	<path fill="#FEFEFE" d="M203.928 342.976C207.421 340.165 211.277 337.987 214.978 335.478L241.151 317.935C246.901 314.125 252.849 310.527 258.261 306.244C258.792 316.798 267.286 335.207 272.944 344.277C275.573 348.492 278.824 352.284 281.594 356.409C277.738 359.609 273.319 362.137 269.145 364.903L245.807 380.324C239.45 384.492 233.413 389.816 226.599 393.188C220.093 387.3 211.285 369.851 208.372 361.478C206.309 355.548 204.857 349.177 203.928 342.976Z"/>
	<path fill="#FBBA27" d="M534.516 125.029C536.577 123.745 538.621 122.481 540.783 121.372C545.663 135.09 553.646 149.532 561.451 161.796C563.614 165.185 566.057 168.459 568.124 171.894C566.168 173.971 558.83 178.054 556.116 179.856L529.901 197.167C522.31 202.091 514.581 206.773 507.099 211.875Q501.296 203.318 496.42 194.2Q491.545 185.082 487.652 175.504C485.614 170.472 483.988 165.216 482.17 160.095C486.632 157.297 490.86 153.976 495.266 151.06L534.516 125.029Z"/>
	<path fill="#FBBA27" d="M190.037 352.028C192.623 370.538 201.734 390.135 214.166 404.152C210.634 407.505 200.089 413.647 195.528 416.611C185.617 423.05 175.975 430.017 166.183 436.649C160.334 440.611 154.229 443.981 148.786 448.536C136.387 430.069 130.261 418.051 125.319 396.171C136.495 388.282 148.122 381.001 159.349 373.193C165.406 368.98 171.597 364.968 177.652 360.771C181.823 357.879 185.653 354.618 190.037 352.028Z"/>
	<path fill="#946D2C" d="M584.966 161.981Q592.029 180.858 599.851 199.433C601.568 203.474 604.145 207.284 605.58 211.417C605.48 212.233 605.294 212.594 604.654 213.142C603.023 214.538 600.95 215.711 599.17 216.926Q591.603 222.124 583.826 227.003C579.56 229.727 574.695 232.471 570.972 235.902C562.658 241.934 553.319 247.127 544.441 252.293C541.74 250.115 538.556 248.33 535.716 246.298L582.41 217.005C586.514 214.426 591.697 212.338 595.242 209.039L595.112 208.735C593.609 209.17 592.207 209.827 590.847 210.596C588.096 212.152 585.505 213.997 582.799 215.628C572.903 221.591 563.171 227.823 553.384 233.962C547.646 237.56 539.895 241.282 534.908 245.66C532.158 242.22 528.651 239.273 525.613 236.075C519.533 229.675 511.263 219.681 507.099 211.875C514.581 206.773 522.31 202.091 529.901 197.167L556.116 179.856C558.83 178.054 566.168 173.971 568.124 171.894L568.373 172.124C574.174 169.393 579.124 164.729 584.966 161.981Z"/>
	<path fill="#192744" d="M584.966 161.981Q592.029 180.858 599.851 199.433C601.568 203.474 604.145 207.284 605.58 211.417C604.66 211.433 603.846 211.362 602.954 211.111C598.569 209.874 571.405 177.516 568.373 172.124C574.174 169.393 579.124 164.729 584.966 161.981Z"/>
	<path fill="#FBBA27" d="M412.377 205.782C420.278 201.596 427.406 195.99 434.876 191.109L465.858 171.178C471.057 167.79 476.041 164.137 481.312 160.842C487.317 179.365 495.475 196.21 505.79 212.705C502.807 214.877 499.449 216.623 496.367 218.694C484.792 226.472 472.869 233.767 461.111 241.267C458.207 243.119 455.456 245.204 452.544 247.044C446.876 250.626 440.909 253.856 435.393 257.669C424.983 241.045 416.876 225.072 412.377 205.782Z"/>
	<path fill="#CDD2DA" d="M346.898 501.127C347.015 501.229 347.134 501.328 347.25 501.432C348.782 502.809 350.078 505.394 351.32 507.115C354.372 511.344 357.439 515.478 361.012 519.29Q361.946 520.289 362.907 521.262Q363.867 522.236 364.853 523.184Q365.838 524.133 366.848 525.055Q367.859 525.977 368.893 526.872Q369.927 527.767 370.984 528.635Q372.041 529.503 373.12 530.343Q374.2 531.182 375.301 531.993Q376.402 532.805 377.524 533.587Q378.646 534.369 379.788 535.121Q380.931 535.873 382.092 536.595Q383.254 537.317 384.434 538.008Q385.614 538.7 386.812 539.36Q388.01 540.02 389.224 540.648Q390.439 541.277 391.67 541.873Q392.901 542.47 394.147 543.034Q395.393 543.597 396.653 544.128Q397.914 544.659 399.187 545.157Q400.461 545.655 401.748 546.119Q403.034 546.583 404.333 547.013Q405.631 547.444 406.94 547.84Q408.249 548.236 409.568 548.597Q410.887 548.959 412.215 549.286Q413.543 549.612 414.88 549.904Q416.216 550.196 417.559 550.453Q418.902 550.709 420.252 550.931Q421.602 551.152 422.957 551.338Q424.312 551.524 425.671 551.674Q427.031 551.824 428.393 551.939Q429.756 552.054 431.122 552.132Q432.487 552.211 433.854 552.254Q435.221 552.297 436.589 552.304Q437.957 552.311 439.324 552.282C452.602 551.963 464.795 549.113 476.839 543.444C479.867 542.019 491.337 534.783 493.842 535.116L495.273 534.219C496.399 534.868 497.409 535.444 498.663 535.802C498.289 536.672 496.843 537.469 496.051 538.054C496.7 538.232 497.466 538.361 498.074 538.637C489.459 544.978 479.779 550.511 470.277 555.407C422.775 579.887 370.498 586.067 317.97 578.028C291.525 573.981 264.623 564.15 241.401 550.88C242.008 550.102 242.194 550.04 243.123 549.673C266.051 525.182 299.151 509.79 331.737 503.304C336.738 502.308 341.84 501.754 346.898 501.127Z"/>
	<path fill="#946D2C" d="M495.273 534.219C496.399 534.868 497.409 535.444 498.663 535.802C498.289 536.672 496.843 537.469 496.051 538.054C495.103 538.091 494.755 538.026 493.963 537.495C493.543 536.425 493.611 536.258 493.842 535.116L495.273 534.219Z"/>
	<path fill="#FBBA27" d="M400.345 350.025C406.682 347.97 412.987 346.135 419.598 345.148C439.397 342.191 460.687 346.079 478.508 355.131Q479.652 355.717 480.781 356.331Q481.91 356.945 483.024 357.586Q484.138 358.228 485.236 358.896Q486.334 359.564 487.415 360.259Q488.496 360.954 489.56 361.675Q490.624 362.396 491.67 363.143Q492.716 363.89 493.744 364.662Q494.771 365.434 495.779 366.231Q496.788 367.028 497.776 367.85Q498.765 368.671 499.733 369.516Q500.701 370.361 501.649 371.23Q502.596 372.099 503.522 372.99Q504.448 373.882 505.352 374.795Q506.256 375.709 507.137 376.645Q508.018 377.58 508.876 378.537Q509.734 379.494 510.569 380.471Q511.404 381.449 512.214 382.446Q513.025 383.444 513.81 384.461Q514.596 385.478 515.357 386.514Q516.118 387.549 516.853 388.604Q517.589 389.658 518.298 390.729Q519.007 391.801 519.69 392.89Q520.373 393.979 521.03 395.084Q521.686 396.189 522.315 397.31Q522.944 398.431 523.546 399.566Q524.147 400.702 524.721 401.852Q525.294 403.002 525.84 404.166Q526.385 405.33 526.902 406.507Q527.419 407.683 527.907 408.872Q528.395 410.061 528.854 411.262Q529.312 412.463 529.742 413.674Q530.171 414.885 530.571 416.107Q530.977 417.409 531.351 418.721Q531.725 420.032 532.067 421.353Q532.409 422.673 532.718 424.002Q533.028 425.33 533.305 426.665Q533.582 428.001 533.826 429.343Q534.07 430.685 534.282 432.032Q534.493 433.38 534.672 434.732Q534.85 436.084 534.995 437.44Q535.141 438.796 535.253 440.155Q535.365 441.515 535.444 442.876Q535.523 444.238 535.569 445.601Q535.615 446.964 535.627 448.328Q535.639 449.692 535.618 451.056Q535.598 452.42 535.543 453.783Q535.489 455.145 535.402 456.506Q535.314 457.868 535.193 459.226Q535.073 460.585 534.919 461.94Q534.765 463.295 534.578 464.646Q534.391 465.997 534.171 467.343Q533.951 468.689 533.699 470.03Q533.446 471.37 533.161 472.704Q532.875 474.038 532.558 475.364Q532.24 476.69 531.89 478.009Q531.54 479.327 531.157 480.636Q530.775 481.945 530.361 483.245Q529.947 484.545 529.501 485.834Q529.056 487.123 528.579 488.4Q528.102 489.678 527.594 490.944Q527.085 492.21 526.547 493.463Q526.008 494.716 525.438 495.955Q524.869 497.195 524.27 498.42Q523.67 499.645 523.041 500.855C518.679 509.226 512.796 517.764 506.194 524.535C503.551 527.247 500.47 529.566 497.957 532.394C498.488 533.283 499.065 534.077 499.165 535.133L498.663 535.802C497.409 535.444 496.399 534.868 495.273 534.219C492.211 530.348 478.458 511.828 477.494 508.646C477.282 507.945 477.476 507.944 477.817 507.35C477.007 507.439 476.248 507.524 475.467 507.222C474.691 506.922 473.833 506.094 473.475 505.345C472.905 504.154 472.851 503.141 473.271 501.914C471.828 500.668 469.04 494.297 467.519 492.179C458.964 480.269 451.298 467.82 443.426 455.457C439.125 448.703 434.612 442.06 430.283 435.315C428.091 431.901 423.493 426.894 422.118 423.396L422.709 422.344L422.859 421.902C423.686 420.952 424.386 419.826 425.12 418.8C423.245 416.393 421.076 414.253 419.339 411.734C420.091 408.725 420.98 405.741 422.528 403.03C423.343 401.603 424.427 400.43 425.084 398.904L424.829 398.494L423.608 398.648C422.559 397.892 422.075 395.535 421.614 394.28C426.447 392.882 430.875 390.409 435.336 388.131C432.395 384.849 420.798 374.009 420.146 370.992C420.425 370.276 420.33 370.39 420.079 369.725C412.398 365.741 406.909 356.026 399.681 350.382L400.345 350.025Z"/>
	<path fill="#CDD2DA" d="M473.271 501.914C474.089 501.138 474.738 500.352 475.899 500.157C477.766 501.085 479.927 502.619 480.645 504.7C480.933 505.535 480.856 505.635 480.523 506.406C479.816 506.628 478.939 506.796 478.315 507.188L477.817 507.35C477.007 507.439 476.248 507.524 475.467 507.222C474.691 506.922 473.833 506.094 473.475 505.345C472.905 504.154 472.851 503.141 473.271 501.914Z"/>
	<path fill="#FEFEFE" d="M478.315 507.188C479.323 507.195 480.175 506.943 480.918 507.744C482.423 509.364 483.694 512.352 484.874 514.285C488.524 520.257 492.853 527.574 497.957 532.394C498.488 533.283 499.065 534.077 499.165 535.133L498.663 535.802C497.409 535.444 496.399 534.868 495.273 534.219C492.211 530.348 478.458 511.828 477.494 508.646C477.282 507.945 477.476 507.944 477.817 507.35L478.315 507.188Z"/>
	<path fill="#FEFEFE" d="M422.859 421.902C424.386 422.051 424.791 422.281 425.754 423.467C430.118 428.839 433.213 434.819 436.983 440.577L460.661 476.881C464.93 483.518 472.762 493.56 475.899 500.157C474.738 500.352 474.089 501.138 473.271 501.914C471.828 500.668 469.04 494.297 467.519 492.179C458.964 480.269 451.298 467.82 443.426 455.457C439.125 448.703 434.612 442.06 430.283 435.315C428.091 431.901 423.493 426.894 422.118 423.396L422.709 422.344L422.859 421.902Z"/>
	<path fill="#FBBA27" d="M420.146 370.992C420.798 374.009 432.395 384.849 435.336 388.131C430.875 390.409 426.447 392.882 421.614 394.28C422.075 395.535 422.559 397.892 423.608 398.648L424.829 398.494L425.084 398.904C424.427 400.43 423.343 401.603 422.528 403.03C420.98 405.741 420.091 408.725 419.339 411.734C421.076 414.253 423.245 416.393 425.12 418.8C424.386 419.826 423.686 420.952 422.859 421.902L422.709 422.344L422.118 423.396C423.493 426.894 428.091 431.901 430.283 435.315C434.612 442.06 439.125 448.703 443.426 455.457C451.298 467.82 458.964 480.269 467.519 492.179C469.04 494.297 471.828 500.668 473.271 501.914C472.851 503.141 472.905 504.154 473.475 505.345C473.833 506.094 474.691 506.922 475.467 507.222C476.248 507.524 477.007 507.439 477.817 507.35C477.476 507.944 477.282 507.945 477.494 508.646C478.458 511.828 492.211 530.348 495.273 534.219L493.842 535.116C491.337 534.783 479.867 542.019 476.839 543.444C464.795 549.113 452.602 551.963 439.324 552.282Q437.957 552.311 436.589 552.304Q435.221 552.297 433.854 552.254Q432.487 552.211 431.122 552.132Q429.756 552.054 428.393 551.939Q427.031 551.824 425.671 551.674Q424.312 551.524 422.957 551.338Q421.602 551.152 420.252 550.931Q418.902 550.709 417.559 550.453Q416.216 550.196 414.879 549.904Q413.543 549.612 412.215 549.286Q410.887 548.959 409.568 548.597Q408.249 548.236 406.94 547.84Q405.631 547.444 404.333 547.013Q403.034 546.583 401.748 546.119Q400.461 545.655 399.187 545.157Q397.914 544.659 396.653 544.128Q395.393 543.597 394.147 543.034Q392.901 542.47 391.67 541.873Q390.439 541.277 389.224 540.648Q388.01 540.02 386.812 539.36Q385.614 538.7 384.434 538.008Q383.254 537.317 382.092 536.595Q380.931 535.873 379.788 535.121Q378.646 534.369 377.524 533.587Q376.402 532.805 375.301 531.993Q374.2 531.182 373.12 530.343Q372.041 529.503 370.984 528.635Q369.927 527.767 368.893 526.872Q367.859 525.977 366.848 525.055Q365.838 524.133 364.853 523.184Q363.867 522.236 362.907 521.262Q361.946 520.289 361.012 519.29C357.439 515.478 354.372 511.344 351.32 507.115C350.078 505.394 348.782 502.809 347.25 501.432C347.134 501.328 347.015 501.229 346.898 501.127C345.683 496.904 342.871 492.532 341.091 488.463C336.235 477.359 333.649 465.932 333.017 453.831C331.769 429.929 339.186 408.221 352.588 388.659C355.133 384.944 357.5 380.973 360.515 377.618C364.287 376.487 369.355 376.756 372.283 373.868C372.239 380.043 375.26 387.397 376.353 393.652C375.52 394.473 374.877 394.898 374.539 396.031L374.765 396.868C375.608 397.078 375.609 397.006 376.327 396.578C378.52 395.273 380.734 392.452 383.354 392.122C383.888 392.049 417.941 372.582 420.146 370.992Z"/>
	<path fill="#192744" d="M420.146 370.992C420.798 374.009 432.395 384.849 435.336 388.131C430.875 390.409 426.447 392.882 421.614 394.28C422.075 395.535 422.559 397.892 423.608 398.648L424.829 398.494L425.084 398.904C424.427 400.43 423.343 401.603 422.528 403.03C420.98 405.741 420.091 408.725 419.339 411.734C421.076 414.253 423.245 416.393 425.12 418.8C424.386 419.826 423.686 420.952 422.859 421.902L422.709 422.344C421.667 422.333 421.007 422.479 420.128 421.801C418.733 420.727 418.549 417.971 418.343 416.381C416.31 416.336 414.225 416.382 412.202 416.197C404.396 415.482 401.639 410.907 397.217 405.488L397.465 404.847L397.033 404.645L396.807 404.857C396.627 405.516 396.602 405.333 396.66 405.88C396.819 407.388 396.847 408.797 396.823 410.311C392.359 413.237 387.453 414.585 382.972 417.261C379.981 411.479 378.68 404.577 376.48 398.425C378.729 396.166 380.812 394.076 383.354 392.122C383.888 392.049 417.941 372.582 420.146 370.992Z"/>
	<path fill="#FEFEFE" d="M421.967 393.285C418.885 390.528 416.595 388.177 415.088 384.221C417.504 387.14 419.691 390.417 423.455 391.494C423.974 391.642 424.136 391.727 424.46 392.151L423.901 392.345L423.969 392.511C421.39 393.91 412.248 397.889 411.454 400.01C411.478 400.747 411.588 401.25 411.968 401.875C413.256 403.989 415.244 405.792 416.752 407.769C417.71 409.025 418.36 410.494 419.339 411.734C421.076 414.253 423.245 416.393 425.12 418.8C424.386 419.826 423.686 420.952 422.859 421.902L422.709 422.344C421.667 422.333 421.007 422.479 420.128 421.801C418.733 420.727 418.549 417.971 418.343 416.381L418.735 412.126C415.78 407.486 411.895 403.61 408.925 398.991C411.292 397.303 415.576 396.593 417.421 394.583C410.002 396.352 403.654 400.564 397.465 404.847L397.033 404.645C400.293 401.455 405.23 398.568 409.344 396.58Q405.67 391.776 401.837 387.098C405.381 389.356 408.291 392.738 410.635 396.193C414.458 393.758 417.52 393.386 421.967 393.285Z"/>
	<path fill="#2D4171" d="M397.465 404.847C403.654 400.564 410.002 396.352 417.421 394.583C415.576 396.593 411.292 397.303 408.925 398.991C411.895 403.61 415.78 407.486 418.735 412.126L418.343 416.381C416.31 416.336 414.225 416.382 412.202 416.197C404.396 415.482 401.639 410.907 397.217 405.488L397.465 404.847Z"/>
	<path fill="#FEFEFE" d="M53.6111 423.938C51.0535 402.413 48.0644 381.285 47.8239 359.552Q47.775 356.303 47.7949 353.054Q47.8148 349.805 47.9035 346.557Q47.9922 343.31 48.1497 340.064Q48.3072 336.819 48.5334 333.578Q48.7595 330.337 49.0543 327.101Q49.3491 323.865 49.7123 320.637Q50.0755 317.408 50.5071 314.188Q50.9386 310.967 51.4383 307.757Q51.9379 304.546 52.5054 301.347Q53.073 298.148 53.7081 294.962Q54.3433 291.775 55.0458 288.603Q55.7483 285.431 56.5178 282.274Q57.2873 279.118 58.1235 275.978Q58.9597 272.838 59.8622 269.717Q60.7647 266.596 61.7332 263.495Q62.7016 260.393 63.7355 257.313Q64.7694 254.233 65.8682 251.175Q66.9671 248.118 68.1305 245.084Q69.2939 242.05 70.5213 239.042Q71.7487 236.034 73.0396 233.052Q74.3304 230.07 75.6841 227.117Q77.0378 224.163 78.4537 221.239Q79.8697 218.314 81.3472 215.421Q82.8248 212.527 84.3633 209.665Q85.9018 206.803 87.5006 203.975Q89.0994 201.146 90.7578 198.352Q92.4161 195.558 94.1332 192.8Q95.8504 190.042 97.6255 187.32Q99.4007 184.599 101.233 181.916Q103.066 179.233 104.954 176.589Q106.843 173.946 108.788 171.342Q110.732 168.739 112.731 166.178C119.575 157.484 126.667 148.901 134.411 140.985C184.036 90.2529 251.319 54.739 322.082 46.3606Q326.002 45.8989 329.933 45.534Q333.864 45.1691 337.802 44.9013Q341.74 44.6335 345.684 44.4629Q349.628 44.2924 353.574 44.2191Q357.521 44.1459 361.469 44.17Q365.416 44.1942 369.362 44.3157Q373.307 44.4372 377.249 44.656Q381.19 44.8748 385.125 45.1907Q389.06 45.5067 392.985 45.9196Q396.911 46.3325 400.826 46.8421Q404.74 47.3518 408.641 47.9578Q412.541 48.5639 416.426 49.2659Q420.31 49.968 424.176 50.7657Q428.042 51.5634 431.887 52.4562Q435.733 53.349 439.555 54.3364Q443.376 55.3237 447.173 56.4051Q450.969 57.4865 454.738 58.6611Q458.507 59.8358 462.245 61.1031Q465.984 62.3704 469.69 63.7295Q473.396 65.0886 477.067 66.5388Q480.739 67.9889 484.373 69.5292Q488.008 71.0694 491.603 72.6988Q495.198 74.3283 498.753 76.0459Q502.307 77.7635 505.817 79.5683Q509.328 81.3731 512.793 83.2639Q516.258 85.1548 519.676 87.1305Q523.093 89.1062 526.461 91.1657Q529.828 93.2251 533.144 95.367Q536.46 97.5089 539.722 99.7319Q542.984 101.955 546.19 104.258Q549.396 106.561 552.544 108.942Q555.692 111.323 558.781 113.781C622.717 164.142 665.662 234.285 675.086 315.657C678.496 345.099 676.177 370.438 672.813 399.602C665.567 391.116 657.577 383.119 649.957 374.958C641.739 366.158 633.787 357.057 625.629 348.191C617.934 339.829 610.964 330.561 602.879 322.585C602.419 322.377 601.869 322.412 601.368 322.375C601.385 322.024 601.41 321.672 601.404 321.321C601.339 317.535 600.49 313.497 599.85 309.767C596.164 288.279 589.266 265.005 578.2 246.143C576.085 242.537 573.963 238.858 570.972 235.902C574.695 232.471 579.56 229.727 583.826 227.003Q591.603 222.124 599.17 216.926C600.95 215.711 603.023 214.538 604.654 213.142C605.294 212.594 605.48 212.233 605.58 211.417C604.145 207.284 601.568 203.474 599.851 199.433Q592.029 180.858 584.966 161.981L583.713 159.623C580.772 155.805 577.211 152.652 573.892 149.184C569.436 144.527 564.955 139.554 560.799 134.632C554.319 126.957 547.999 118.88 541.992 110.821C540.533 108.864 539.793 106.396 538.352 104.609C537.362 104.381 537.022 104.681 536.103 105.067C531.077 108.972 525.497 112.123 520.202 115.647C510.855 121.868 501.588 128.263 492.171 134.371C489.054 136.393 482.959 139.207 480.544 141.695C479.891 142.092 479.142 142.465 478.54 142.929C473.913 145.697 464.054 153.379 459.214 154.111C454.173 150.982 448.79 148.638 443.328 146.359C426.077 139.159 412.073 135.824 393.775 132.61C388.604 131.701 383.375 130.603 378.151 130.084Q366.892 128.998 355.582 128.881Q344.272 128.764 332.993 129.617C321.764 130.506 310.153 132.776 299.178 135.337C285.948 138.424 273.721 143.027 261.285 148.382C211.681 169.744 176.495 202.035 148.149 247.798C135.09 268.882 124.7 298.259 120.667 322.689C119.223 331.436 119.01 341.001 117.406 349.39C103.124 365.334 89.559 381.887 75.7063 398.201C68.386 406.821 60.722 415.143 53.6111 423.938Z"/>
	<path fill="#192744" d="M363.056 79.496L368.308 80.1065L364.733 111.421C363.221 111.616 361.664 111.296 360.16 111.105C360.733 100.581 362.082 89.9979 363.056 79.496Z"/>
	<path fill="#192744" d="M231.937 100.579C233.628 102.338 241.826 122.665 243.51 126.522C247.822 124.263 252.458 122.609 257.021 120.94C257.552 121.966 257.955 123.097 258.401 124.164L254.223 125.844Q247.428 128.499 240.784 131.511C236.876 121.766 231.823 112.26 227.445 102.696L231.937 100.579Z"/>
	<path fill="#192744" d="M194.539 121.04C194.817 121.117 195.135 121.108 195.374 121.271C196.438 121.994 208.97 141.951 210.486 144.395C214.437 141.487 218.832 139.101 223.032 136.567L224.831 139.693L221.087 141.911C216.862 144.495 212.651 147.065 208.594 149.909C203.022 140.908 196.709 132.249 190.742 123.499L194.539 121.04Z"/>
	<path fill="#192744" d="M143.348 164.893L145.99 167.474C143.356 170.413 140.822 173.456 138.246 176.448C145.64 182.247 152.849 188.316 160.135 194.254C159.18 195.514 158.165 196.734 157.178 197.969L147.544 190.382C143.284 187.251 139.189 183.827 135.035 180.552C132.476 183.623 130.182 186.977 127.811 190.197L124.951 187.887C130.621 179.802 136.88 172.334 143.348 164.893Z"/>
	<path fill="#192744" d="M114.774 204.894C115.731 205.718 116.472 206.934 117.233 207.947C114.809 210.16 111.392 213.74 110.756 217.096C110.463 218.642 110.623 221.133 111.781 222.336C115.856 226.568 124.447 213.32 132.059 214.055C133.981 214.24 135.473 215.155 136.627 216.689C138.308 218.923 139.007 221.987 138.481 224.733C137.586 229.413 134.254 235.306 130.257 238.001L127.481 235.517C129.011 234.141 130.574 232.685 131.797 231.022C133.54 228.651 135.122 225.843 134.553 222.793C134.315 221.518 133.673 220.385 132.551 219.697C127.674 216.709 121.806 224.65 118.012 226.912C116.672 227.712 115.139 228.074 113.641 228.458C111.926 228.017 110.413 227.586 109.087 226.334C107.49 224.825 106.783 222.871 106.742 220.701C106.624 214.372 110.674 209.226 114.774 204.894Z"/>
	<path fill="#192744" d="M397.981 85.7442C403.589 85.6324 408.108 87.3959 412.863 90.2198C412.141 91.3023 411.211 92.3242 410.401 93.3486Q409.47 92.7033 408.505 92.1098C405.64 90.342 402.085 88.6456 398.67 89.5572C396.994 90.0044 395.593 90.5255 394.698 92.0675C394.024 97.9849 406 101.68 407.864 107.733C408.504 109.814 408.187 111.794 407.088 113.654C405.457 116.415 402.851 117.239 399.921 117.922C394.073 118.078 389.277 116.641 384.418 113.417L386.286 110.088C389.852 112.316 394.637 115.294 399.028 114.167C400.626 113.757 401.879 112.811 402.653 111.349C405.79 105.418 391.457 101.067 389.837 94.7673C389.396 93.0509 389.664 90.9793 390.638 89.4831C392.213 87.0662 395.319 86.2368 397.981 85.7442Z"/>
	<path fill="#192744" d="M172.636 136.929L175.128 139.57C171.131 142.974 166.865 146.289 163.272 150.119C165.527 152.399 167.635 154.866 169.795 157.239C173.332 153.979 177.006 150.856 180.631 147.694L182.919 150.603Q177.446 155.085 172.141 159.765Q176.02 163.927 179.827 168.154C182.216 165.903 184.635 163.749 187.163 161.654L191.119 158.201L193.623 161.099C188.36 164.97 183.586 169.497 178.809 173.938C172.331 166.106 164.018 158.327 156.897 150.871C162.119 146.176 167.293 141.491 172.636 136.929Z"/>
	<path fill="#192744" d="M281.718 84.339C282.072 84.2807 282.382 84.3506 282.734 84.3973C288.732 91.1232 296.366 104.871 300.805 112.989L296.089 113.804L290.561 104.787L287.464 105.428L278.441 107.542C278.053 111.047 277.708 114.536 277.496 118.058L273.189 119.263C273.331 107.971 275.211 96.6951 276.648 85.5194C278.322 85.0504 280.019 84.7006 281.718 84.339Z"/>
	<path fill="#FEFEFE" d="M280.439 89.0811C282.834 91.2051 286.933 98.6876 288.83 101.652L285.194 102.517L278.667 104.051C279.31 99.0717 280.027 94.0857 280.439 89.0811Z"/>
	<path fill="#192744" d="M324.228 78.3791C327.976 78.0959 332.274 77.9309 335.718 79.641C337.743 80.6464 340.083 82.7663 340.749 84.995C342.361 90.3893 335.972 92.2727 334.525 94.9408C339.364 98.8819 339.641 104.303 341.297 110.02L336.636 110.069C335.552 107.211 334.805 104.209 333.974 101.269C333.511 100.093 332.877 98.8827 331.902 98.0466C329.446 95.9394 325.673 96.5804 322.705 96.7385Q322.97 103.567 323.597 110.371C322.075 110.569 320.544 110.685 319.016 110.819Q317.617 95.1502 316.44 79.4634C319.037 78.953 321.593 78.6224 324.228 78.3791Z"/>
	<path fill="#FEFEFE" d="M322.35 81.906Q323.875 81.7739 325.404 81.684C328.565 81.5061 332.212 81.9163 334.61 84.2114C335.29 84.8621 335.766 85.7728 335.72 86.7354C335.623 88.785 334.352 90.4195 332.956 91.8063C329.536 93.4608 326.201 93.3992 322.506 93.4953C322.345 91.232 321.107 83.4073 322.35 81.906Z"/>
</svg>
